# xmcd
#
# Track frame offsets: 
#        150
#        14903
#        34478
#        74777
#        100682
#        129544
#        140145
#        164289
#
# Disc length: 2704 seconds
#
# Revision: 3
# Processed by: cddbd v1.5.2PL0 Copyright (c) Steve Scherf et al.
# Submitted via: ExactAudioCopy v1.3
#
DISCID=7d0a8e08
DTITLE=Adams, Douglas - Per Anhalter durch die Galaxis HS1
DYEAR=2005
DGENRE=Hörspiel
TTITLE0=Ein Tango am Ende der Welt 1
TTITLE1=Ein Tango am Ende der Welt 2
TTITLE2=Ein Tango am Ende der Welt 3
TTITLE3=Ein Tango am Ende der Welt 4
TTITLE4=Ein Tango am Ende der Welt 5
TTITLE5=Ein Tango am Ende der Welt 6
TTITLE6=Ein Tango am Ende der Welt 7
TTITLE7=Ein Tango am Ende der Welt 8
EXTD=Hörspiel von BR2, SWR2 und WDR
EXTT0=
EXTT1=
EXTT2=
EXTT3=
EXTT4=
EXTT5=
EXTT6=
EXTT7=
PLAYORDER=
